<?xml version="1.0" encoding="utf-8"?>
<!-- Generator: Adobe Illustrator 23.1.0, SVG Export Plug-In . SVG Version: 6.00 Build 0)  -->
<svg version="1.1" id="Слой_1" xmlns="http://www.w3.org/2000/svg" xmlns:xlink="http://www.w3.org/1999/xlink" x="0px" y="0px"
	 viewBox="0 0 50 50" style="enable-background:new 0 0 50 50;" xml:space="preserve">
<style type="text/css">
	.st0{fill:#1F72B4;}
	.st1{fill:#51A2DB;}
	.st2{fill:#CDCDCD;}
	.st3{fill:#EAEAEA;}
</style>
<path class="st0" d="M46.4,0.3c-7.2,0-14.4,0-21.6,0c-7.2,0-14.4,0-21.6,0c-0.4,0-0.4,0-0.3,0.4C3,2.2,3.1,3.8,3.3,5.4
	c0.1,1.4,0.2,2.7,0.4,4.1c0.1,1.6,0.3,3.2,0.4,4.8c0.1,1.3,0.2,2.7,0.4,4c0.1,1.6,0.3,3.2,0.4,4.8c0.1,1.3,0.2,2.7,0.4,4
	c0.1,1.6,0.3,3.2,0.4,4.7C5.8,33.3,5.9,34.6,6,36c0.1,1.6,0.3,3.2,0.4,4.7c0.1,1.4,0.2,2.7,0.4,4.1c0,0.1,0.1,0.2,0.2,0.3
	c5.8,1.6,11.7,3.2,17.5,4.9c0.1,0,0.3,0,0.4,0c5.9-1.6,11.7-3.3,17.6-4.9c0.2,0,0.2-0.1,0.2-0.3c0-0.4,0.1-0.9,0.1-1.3
	c0.1-1.4,0.2-2.7,0.4-4.1c0.1-1.6,0.3-3.2,0.4-4.7c0.1-1.4,0.2-2.7,0.4-4.1c0.1-1.6,0.3-3.1,0.4-4.7c0.1-1.4,0.2-2.7,0.4-4.1
	c0.2-1.7,0.3-3.5,0.5-5.2c0.1-1.6,0.3-3.1,0.4-4.7C45.8,9.9,46,8,46.2,6c0.2-1.8,0.3-3.6,0.5-5.4C46.7,0.3,46.7,0.3,46.4,0.3z"/>
<path class="st1" d="M42.4,3.9c-5.8,0-11.6,0-17.4,0c-0.2,0-0.3,0.1-0.3,0.3c0,1.6,0,3.3,0,4.9l0,0c0,0,0,0,0,0v31.7c0,0,0,0,0,0
	c0,0,0,0,0,0c0,0.7,0,1.4,0,2c0,1.1,0,2.1,0,3.2c0,0.2,0,0.2,0.2,0.2c0.2-0.1,0.5-0.1,0.7-0.2c1.8-0.5,3.5-1,5.3-1.5
	c1.7-0.5,3.5-1,5.2-1.4c1-0.3,2-0.5,3-0.8c0.1,0,0.2,0,0.2-0.2c0-0.2,0-0.4,0-0.6c0-0.4,0.1-0.9,0.1-1.3c0.1-0.7,0.1-1.3,0.2-2
	c0.1-0.6,0.1-1.2,0.2-1.9c0.1-0.7,0.1-1.4,0.2-2c0.1-0.6,0.1-1.2,0.2-1.8c0.1-0.7,0.1-1.3,0.2-2c0.1-0.6,0.1-1.3,0.2-1.9
	c0.1-0.7,0.1-1.3,0.2-2c0-0.4,0.1-0.9,0.1-1.3c0.1-0.7,0.1-1.3,0.2-1.9c0-0.4,0.1-0.9,0.1-1.3c0.1-0.6,0.1-1.3,0.2-1.9
	c0.1-0.6,0.1-1.3,0.2-1.9c0.1-0.6,0.1-1.3,0.2-1.9c0.1-0.6,0.1-1.3,0.2-1.9c0.1-0.8,0.2-1.6,0.2-2.5c0.1-0.8,0.1-1.7,0.2-2.5
	c0.1-1,0.2-2,0.3-3c0.1-0.7,0.1-1.4,0.2-2.2C42.7,4,42.7,3.9,42.4,3.9z"/>
<path class="st2" d="M24.8,25.8c-0.1,0-0.2,0-0.3,0c-4.2,0-8.4,0-12.6,0c-0.3,0-0.4-0.1-0.4-0.3c0-0.5-0.1-1.1-0.1-1.6
	c-0.1-0.9-0.1-1.8-0.2-2.7c0-0.2,0-0.5,0-0.7c0-0.1,0.1-0.2,0.2-0.2c1-0.4,2-0.9,3-1.3c3.3-1.5,6.7-2.9,10-4.4
	c0.1,0,0.2-0.1,0.3-0.1c-0.1,0-0.1,0-0.1,0c-1.7,0-3.3,0-5,0c-2.9,0-5.7,0-8.6-0.1c-0.4,0-0.5,0-0.5-0.4c-0.1-0.9-0.2-1.8-0.3-2.7
	c-0.1-0.6-0.1-1.1-0.2-1.7c0-0.1,0-0.2,0-0.3c0-0.1,0-0.2,0.2-0.1c0.1,0,0.1,0,0.2,0c4.7,0,9.4,0,14.2,0c0.1,0,0.2,0,0.3,0
	c0,0,0,0,0,0C24.8,14.6,24.8,20.2,24.8,25.8L24.8,25.8z"/>
<path class="st2" d="M24.8,40.8c-3.3-0.8-6.6-1.6-9.9-2.4c-0.6-0.2-1.3-0.3-1.9-0.5c-0.1,0-0.2-0.1-0.2-0.2
	c-0.1-1.2-0.2-2.4-0.3-3.6c-0.1-1-0.2-2-0.3-3.1c0-0.5-0.1-1-0.1-1.6c0-0.2,0-0.2,0.2-0.2c1.7,0,3.4,0,5.1,0c0.2,0,0.2,0.1,0.2,0.2
	c0.1,1.3,0.2,2.7,0.2,4c0,0.2,0.1,0.3,0.3,0.4c1.7,0.3,3.4,0.6,5.1,1c0.5,0.1,1,0.2,1.5,0.3c0,0,0,0,0,0
	C24.8,37,24.8,38.9,24.8,40.8C24.8,40.7,24.8,40.8,24.8,40.8z"/>
<path class="st1" d="M24.8,35.1C24.8,35.1,24.8,35,24.8,35.1c0-3.1,0-6.2,0-9.3c0,0,0,0,0,0c0.1,0,0.2,0,0.3,0c2.3,0,4.5,0,6.8,0
	c0.2,0,0.3,0.1,0.3,0.3c0,0.4,0,0.7,0,1.1C32,28.6,32,30,31.9,31.4c0,0.5-0.1,1-0.1,1.5c0,0.1-0.1,0.2-0.2,0.2c-2,0.6-4,1.2-6,1.8
	C25.4,35,25.1,35.2,24.8,35.1z"/>
<path class="st3" d="M24.8,35.1c0.3,0.1,0.6,0,0.9-0.1c2-0.6,4-1.2,6-1.8c0.1,0,0.2-0.1,0.2-0.2c0-0.5,0.1-1,0.1-1.5
	c0.1-1.4,0.1-2.9,0.2-4.3c0-0.4,0-0.7,0-1.1c0-0.2,0-0.3-0.3-0.3c-2.3,0-4.5,0-6.8,0c-0.1,0-0.2,0-0.3,0c0-5.6,0-11.1,0-16.7
	c0.1,0,0.2,0,0.3,0c4.7,0,9.5,0,14.2,0c0.2,0,0.3,0.1,0.3,0.3c-0.1,1.6-0.2,3.1-0.3,4.7c0,0.3,0,0.5,0,0.8c0,0.2-0.1,0.2-0.2,0.3
	c-1.7,0.8-3.4,1.5-5.2,2.3c-2.3,1-4.6,2-6.9,3c-0.1,0-0.1,0.1-0.2,0.1c0.1,0,0.2,0,0.3,0c3.8,0,7.6,0,11.3,0c0.2,0,0.3,0,0.3,0.3
	c-0.1,1.2-0.2,2.4-0.3,3.7c-0.1,1.6-0.3,3.2-0.4,4.9c-0.1,1.2-0.2,2.4-0.3,3.7c-0.1,1.5-0.2,3-0.3,4.5c0,0.1-0.1,0.2-0.2,0.2
	c-1.3,0.3-2.5,0.7-3.8,1c-2.6,0.7-5.2,1.4-7.9,2.1c-0.3,0.1-0.5,0-0.8-0.1C24.8,38.9,24.8,37,24.8,35.1z"/>
</svg>
