<?xml version="1.0" encoding="utf-8"?>
<!-- Generator: Adobe Illustrator 23.1.0, SVG Export Plug-In . SVG Version: 6.00 Build 0)  -->
<svg version="1.1" id="Слой_1" xmlns="http://www.w3.org/2000/svg" xmlns:xlink="http://www.w3.org/1999/xlink" x="0px" y="0px"
	 viewBox="0 0 50 50" style="enable-background:new 0 0 50 50;" xml:space="preserve">
<style type="text/css">
	.st0{fill:#E44C22;}
	.st1{fill:#F06524;}
	.st2{fill:#EBEAE9;}
	.st3{fill:#EBEAEA;}
	.st4{fill:#FEFEFD;}
	.st5{fill:#FEFEFE;}
</style>
<path class="st0" d="M46.7-0.1c-7.2,0-14.5,0-21.7,0c-6.1,0-12.2,0-18.3,0c-1.2,0-2.3,0-3.5,0C3-0.1,2.9,0,2.9,0.2
	C3,1,3.1,1.7,3.1,2.4c0.3,3.6,0.6,7.3,1,10.9c0.3,3.6,0.7,7.3,1,10.9c0.3,3.6,0.7,7.3,1,10.9c0.3,3.2,0.6,6.4,0.8,9.6
	c0,0.2,0.1,0.3,0.3,0.3c0.8,0.2,1.5,0.4,2.2,0.6c5.1,1.4,10.2,2.8,15.3,4.2c0.2,0.1,0.3,0,0.5,0c2.9-0.8,5.9-1.6,8.8-2.4
	c2.9-0.8,5.8-1.6,8.7-2.4c0.2-0.1,0.3-0.2,0.3-0.4c0.1-1.4,0.2-2.7,0.4-4.1c0.2-2.7,0.5-5.5,0.7-8.2c0.2-2.7,0.5-5.5,0.7-8.2
	c0.2-2.7,0.5-5.4,0.7-8.2c0.2-2.7,0.5-5.5,0.7-8.2c0.2-2.5,0.4-5,0.7-7.4C47.1,0,47-0.1,46.7-0.1z"/>
<path class="st1" d="M42.7,3.6c-5.8,0-11.6,0-17.3,0C25.1,3.6,25,3.7,25,4c0,0.4,0,0.8,0,1.2v9.6c0,0,0,0,0,0c0,0,0,0,0,0v5.6
	c0,0,0,0,0,0c0,0,0,0,0,0v20.7h0c0,1.6,0,3.2,0,4.8c0,0.3,0.1,0.3,0.3,0.2c0.4-0.1,0.8-0.2,1.1-0.3c2.1-0.6,4.1-1.2,6.2-1.7
	c2.3-0.6,4.5-1.2,6.8-1.9c0.2,0,0.2-0.1,0.3-0.3c0.1-1,0.2-1.9,0.3-2.9c0.1-0.6,0.1-1.2,0.2-1.9c0.1-1.1,0.2-2.3,0.3-3.4
	c0.1-0.9,0.1-1.8,0.2-2.7c0.1-1.1,0.2-2.1,0.3-3.2c0-0.5,0.1-1.1,0.1-1.6c0.1-0.9,0.2-1.7,0.3-2.6c0.1-0.9,0.1-1.9,0.2-2.8
	c0.1-1,0.2-2,0.3-3c0-0.6,0.1-1.2,0.1-1.8c0.1-0.9,0.2-1.9,0.3-2.8c0.1-0.6,0.1-1.3,0.2-1.9c0.1-0.9,0.2-1.8,0.3-2.7
	c0.1-0.6,0.1-1.2,0.2-1.9c0.1-1,0.2-1.9,0.3-2.9C43,3.7,42.9,3.6,42.7,3.6z"/>
<path class="st2" d="M25,25.9c-0.1,0-0.3,0-0.4,0c-3.9,0-7.7,0-11.6,0c-0.3,0-0.4-0.1-0.4-0.4c-0.2-2.6-0.5-5.2-0.7-7.8
	c-0.2-2.7-0.5-5.4-0.8-8.2c0-0.3,0-0.4,0.4-0.4c4.3,0,8.7,0,13,0c0.2,0,0.3,0,0.5,0c0,0,0,0,0,0c0,1.8,0,3.7,0,5.5c0,0,0,0,0,0
	c-0.5,0-0.9,0-1.4,0c-2,0-4,0-6.1,0c-0.3,0-0.4,0.1-0.3,0.4c0,0.2,0,0.4,0.1,0.6c0.1,1.5,0.3,2.9,0.4,4.4c0,0.3,0.1,0.3,0.3,0.3
	c1.6,0,3.2,0,4.8,0c0.7,0,1.5,0,2.2,0c0,0,0,0,0,0C25,22.2,25,24,25,25.9C25,25.9,25,25.9,25,25.9z"/>
<path class="st3" d="M25,40.5c-1.4-0.4-2.8-0.8-4.2-1.2c-2.3-0.6-4.5-1.3-6.8-1.9c-0.3-0.1-0.4-0.2-0.4-0.5
	c-0.2-2.6-0.5-5.2-0.7-7.9c0-0.3,0-0.4,0.4-0.4c1.6,0,3.2,0,4.8,0c0.3,0,0.4,0.1,0.4,0.3c0.1,1.3,0.2,2.6,0.3,3.8
	c0,0.2,0.1,0.3,0.2,0.3c1.9,0.5,3.9,1,5.8,1.5c0.1,0,0.1,0,0.2,0c0,0,0,0,0,0C25,36.6,25,38.5,25,40.5L25,40.5z"/>
<path class="st1" d="M25,34.7C25,34.7,25,34.7,25,34.7c0-3,0-5.9,0-8.8c0,0,0,0,0,0c0.1,0,0.3,0,0.4,0c2,0,4,0,6,0
	c0.3,0,0.4,0.1,0.3,0.4c-0.2,2.2-0.4,4.4-0.6,6.5c0,0.2-0.1,0.3-0.3,0.4c-1.2,0.3-2.3,0.6-3.5,0.9C26.5,34.3,25.8,34.5,25,34.7z"/>
<path class="st4" d="M25,34.7c0.8-0.2,1.6-0.4,2.3-0.6c1.2-0.3,2.3-0.6,3.5-0.9c0.2-0.1,0.3-0.1,0.3-0.4c0.2-2.2,0.4-4.4,0.6-6.5
	c0-0.3,0-0.4-0.3-0.4c-2,0-4,0-6,0c-0.1,0-0.3,0-0.4,0c0-1.8,0-3.7,0-5.5c0.1,0,0.2,0,0.3,0c4,0,8,0,12.1,0c0.4,0,0.4,0.1,0.4,0.4
	c-0.3,2.7-0.5,5.3-0.7,8c-0.2,2.7-0.5,5.4-0.7,8.1c0,0.3-0.2,0.5-0.5,0.6c-3.4,0.9-6.9,1.9-10.3,2.8c-0.2,0.1-0.4,0.1-0.6,0.1
	C25,38.5,25,36.6,25,34.7z"/>
<path class="st5" d="M25,14.7c0-1.8,0-3.7,0-5.5c0.1,0,0.2,0,0.3,0c4.3,0,8.7,0,13,0c0.4,0,0.4,0,0.4,0.4c-0.1,1.6-0.3,3.2-0.4,4.8
	c0,0.2-0.1,0.3-0.3,0.3C33.7,14.7,29.4,14.7,25,14.7C25,14.7,25,14.7,25,14.7z"/>
</svg>
