<?xml version="1.0" encoding="utf-8"?>
<!-- Generator: Adobe Illustrator 23.1.0, SVG Export Plug-In . SVG Version: 6.00 Build 0)  -->
<svg version="1.1" id="Слой_1" xmlns="http://www.w3.org/2000/svg" xmlns:xlink="http://www.w3.org/1999/xlink" x="0px" y="0px"
	 viewBox="0 0 50 50" style="enable-background:new 0 0 50 50;" xml:space="preserve">
<style type="text/css">
	.st0{fill:#E8C832;}
	.st1{fill:#FEDC26;}
	.st2{fill:#FEFDFB;}
	.st3{fill:#FEFEFC;}
</style>
<path class="st0" d="M47.1,0.1c-7.3,0-14.5,0-21.8,0c0,0,0,0,0,0c-7.2,0-14.4,0-21.6,0c-0.1,0-0.2,0-0.3,0c-0.1,0-0.2,0.1-0.2,0.2
	c0,0.4,0.1,0.7,0.1,1.1c0.1,1.4,0.3,2.7,0.4,4.1C3.8,6.4,3.9,7.3,4,8.2C4,8.9,4.1,9.5,4.1,10.1c0.1,1.1,0.2,2.1,0.3,3.2
	c0.1,0.9,0.1,1.7,0.2,2.6c0.1,1.1,0.2,2.2,0.3,3.3c0.1,0.7,0.1,1.4,0.2,2.1c0.1,0.8,0.2,1.7,0.2,2.5c0.1,1.1,0.2,2.1,0.3,3.2
	c0.1,1.5,0.3,3,0.4,4.5c0.1,1.1,0.2,2.1,0.3,3.2c0.1,0.9,0.1,1.8,0.2,2.7c0.1,1.2,0.2,2.5,0.3,3.7c0.1,1.2,0.2,2.5,0.3,3.7
	c0,0.2,0.1,0.2,0.2,0.3c0.4,0.1,0.9,0.2,1.3,0.3c1.4,0.4,2.8,0.8,4.3,1.2c1.4,0.4,2.7,0.8,4.1,1.1c1.4,0.4,2.8,0.8,4.2,1.2
	c1.2,0.3,2.4,0.7,3.6,1c0.2,0.1,0.5,0.2,0.7,0.1c0.5-0.2,1-0.3,1.6-0.5c1.3-0.4,2.5-0.7,3.8-1.1c1.2-0.3,2.5-0.7,3.7-1
	c1-0.3,1.9-0.5,2.9-0.8c1-0.3,2.1-0.6,3.1-0.9c0.8-0.2,1.7-0.5,2.5-0.7c0.2-0.1,0.4-0.2,0.3-0.4c0-0.1,0-0.3,0-0.4
	c0.1-0.9,0.2-1.8,0.2-2.7c0.1-0.6,0.1-1.3,0.2-1.9c0.1-1.1,0.2-2.1,0.3-3.2c0.1-0.7,0.1-1.4,0.2-2.1c0.1-0.9,0.2-1.9,0.2-2.8
	c0.1-0.6,0.1-1.2,0.2-1.9c0.1-1.2,0.2-2.3,0.3-3.5c0.1-1.1,0.2-2.2,0.3-3.3c0.1-1.3,0.2-2.5,0.3-3.8c0.1-0.9,0.1-1.7,0.2-2.6
	c0.1-1.1,0.2-2.1,0.3-3.2c0.1-1.1,0.2-2.2,0.3-3.2c0.1-0.9,0.2-1.8,0.2-2.8c0.1-0.7,0.1-1.3,0.2-2c0.1-0.8,0.2-1.6,0.2-2.4
	c0.1-0.8,0.1-1.7,0.2-2.5C47.4,0.1,47.4,0.1,47.1,0.1z"/>
<path class="st1" d="M42.7,4C37,4,31.4,4,25.7,4c-0.4,0-0.4,0-0.4,0.4c0,6.9,0,13.7,0,20.6c0,6.9,0,13.7,0,20.6c0,0.1,0,0.1,0,0.2
	c0,0.2,0.1,0.3,0.3,0.2c1-0.3,2-0.5,2.9-0.8c0.7-0.2,1.4-0.4,2-0.6c0.7-0.2,1.4-0.4,2.1-0.6c0.6-0.1,1.1-0.3,1.7-0.4
	c0.6-0.2,1.3-0.3,1.9-0.5c0.4-0.1,0.8-0.2,1.2-0.3c0.7-0.2,1.3-0.4,2-0.5c0.1,0,0.2-0.1,0.2-0.2c0-0.1,0.1-0.3,0.1-0.4
	c0-0.3,0-0.6,0.1-1c0.1-0.7,0.1-1.4,0.2-2.1c0-0.3,0-0.5,0.1-0.8c0.1-0.7,0.1-1.3,0.2-2c0-0.4,0.1-0.9,0.1-1.3
	c0.1-0.7,0.1-1.4,0.2-2.1c0-0.5,0.1-1,0.1-1.5c0.1-0.6,0.1-1.3,0.2-1.9c0-0.3,0-0.6,0.1-0.9c0.1-0.6,0.1-1.3,0.2-1.9
	c0-0.3,0-0.6,0.1-0.9c0.1-0.6,0.1-1.2,0.2-1.8c0-0.5,0.1-0.9,0.1-1.4c0.1-0.8,0.2-1.5,0.2-2.3c0-0.4,0.1-0.9,0.1-1.3
	c0.1-0.8,0.1-1.6,0.2-2.3c0-0.5,0.1-1,0.1-1.5c0-0.7,0.1-1.4,0.2-2.2c0-0.4,0.1-0.9,0.1-1.3c0.1-0.7,0.1-1.3,0.2-2
	c0-0.4,0.1-0.9,0.1-1.3c0.1-0.7,0.1-1.4,0.2-2.2c0-0.5,0.1-1,0.1-1.5C43,4.1,43,4,42.7,4z"/>
<path class="st2" d="M23.7,40.1c-0.1,0.2-0.1,0.2-0.3,0.1c-1.7-0.5-3.5-0.9-5.2-1.4c-1.4-0.4-2.9-0.8-4.3-1.2
	c-1.1-0.3-2.2-0.6-3.2-0.9c-0.2-0.1-0.3-0.2-0.3-0.4c0-1.5,0-3,0-4.5c0-0.2,0.1-0.3,0.3-0.3c0,0,0.1,0,0.1,0
	c0.3,0.1,0.5,0.2,0.8,0.2c0,0,0.1,0,0.1,0c0.3,0.1,0.6,0.2,0.9,0.2c0,0,0.1,0,0.1,0c0.3,0.1,0.5,0.2,0.8,0.2c0,0,0,0,0.1,0
	c0.1,0.1,0.2,0.1,0.4,0.1c0,0,0,0,0,0c0.1,0.1,0.3,0.1,0.4,0.1c0,0,0,0,0.1,0c0.1,0.1,0.2,0.1,0.4,0.1c0,0,0,0,0,0
	c0.1,0.1,0.3,0.2,0.5,0.2c0,0,0,0,0.1,0c0.3,0.2,0.5,0.2,0.8,0.3c0,0,0.1,0,0.1,0c0.4,0.2,0.8,0.3,1.2,0.3c0,0,0.1,0,0.1,0
	c0.2,0.1,0.5,0.2,0.7,0.2c0.1,0,0.1,0,0.2,0c0.1,0.1,0.2,0.1,0.3,0.1c0,0,0,0,0,0c0.1-0.1,0.1-0.2,0.1-0.3c0-3.6,0-7.2,0-10.9
	c0-4.3,0-8.7,0-13c0-0.4,0-0.4,0.4-0.4c1.4,0,2.8,0,4.2,0c0.1,0,0.3,0,0.3,0.2c0,0.1,0,0.2,0,0.3c0,10,0,20,0,30
	C23.7,39.9,23.7,40,23.7,40.1z"/>
<path class="st3" d="M27,18.7c0-3,0-6,0-9.1c0-0.3,0-0.3,0.3-0.3c4.4,0,8.7,0,13.1,0c0.3,0,0.4,0,0.3,0.4c-0.1,0.7-0.1,1.4-0.2,2
	c-0.1,0.7-0.1,1.5-0.2,2.2c0,0.2-0.1,0.2-0.3,0.2c-2.7,0-5.3,0-8,0c-0.4,0-0.4,0-0.4,0.4c0,2.6,0,5.2,0,7.8c0,0.3,0,0.3,0.3,0.3
	c0.9-0.1,1.7-0.3,2.6-0.4c1.2-0.2,2.5-0.4,3.7-0.6c0.3-0.1,0.7-0.1,1-0.2c0.2,0,0.2,0,0.2,0.2c-0.1,0.7-0.1,1.4-0.2,2.2
	c0,0.4-0.1,0.8-0.1,1.1c-0.1,0.7-0.1,1.3-0.2,2c0,0.6-0.1,1.2-0.2,1.8c-0.1,0.8-0.1,1.6-0.2,2.4c-0.1,0.7-0.1,1.5-0.2,2.2
	c-0.1,1.2-0.2,2.4-0.3,3.6c0,0.2-0.1,0.3-0.3,0.3c-0.8,0.2-1.7,0.5-2.5,0.7c-0.7,0.2-1.3,0.4-2,0.5c-0.8,0.2-1.6,0.5-2.4,0.7
	c-0.6,0.2-1.2,0.3-1.8,0.5c-0.7,0.2-1.4,0.4-2.1,0.6c-0.2,0.1-0.2,0-0.2-0.2c0-1.5,0-3.1,0-4.6c0-0.2,0.1-0.2,0.2-0.3
	c0.6-0.2,1.3-0.3,1.9-0.5c0.8-0.2,1.6-0.5,2.4-0.7c0.7-0.2,1.4-0.4,2.1-0.6c0,0,0.1,0,0.1,0c0.5-0.1,0.4-0.1,0.5-0.6
	c0.1-0.8,0.2-1.7,0.3-2.5c0-0.1,0-0.3,0-0.4c0.1-0.9,0.2-1.7,0.3-2.6c0-0.2,0-0.3-0.2-0.2c-1.2,0.2-2.4,0.4-3.6,0.6
	c-1.2,0.2-2.4,0.4-3.6,0.6c-0.1,0-0.2,0-0.2,0c-0.1,0-0.2-0.1-0.2-0.2c0-0.1,0-0.1,0-0.2C27,24.8,27,21.8,27,18.7z"/>
</svg>
