<?xml version="1.0" encoding="utf-8"?>
<!-- Generator: Adobe Illustrator 23.1.0, SVG Export Plug-In . SVG Version: 6.00 Build 0)  -->
<svg version="1.1" id="Слой_1" xmlns="http://www.w3.org/2000/svg" xmlns:xlink="http://www.w3.org/1999/xlink" x="0px" y="0px"
	 viewBox="0 0 50 50" style="enable-background:new 0 0 50 50;" xml:space="preserve">
<path d="M18.5,21.1c0.4,0.5,0.7,1.1,1.1,1.6c4.9,7.2,9.8,14.4,14.7,21.6c0.4,0.6,0.9,1.3,1.3,1.9c0.1,0.2,0.1,0.3-0.1,0.4
	c-1.6,0.8-3.2,1.4-4.9,1.8c-2.1,0.5-4.2,0.7-6.4,0.6c-1.4-0.1-2.7-0.2-4.1-0.5c-2.1-0.4-4-1.1-5.9-2.1c-4-2-7.2-4.9-9.6-8.7
	c-1.3-2.1-2.3-4.3-2.9-6.7c-0.6-2.4-0.8-4.8-0.7-7.2c0.3-5.5,2.3-10.4,6-14.6c2.3-2.6,5.1-4.7,8.3-6.1c2-0.9,4.2-1.5,6.4-1.9
	c1.6-0.2,3.2-0.3,4.8-0.2c1.5,0.1,3,0.3,4.5,0.7c2.9,0.7,5.6,2,8.1,3.7c3.5,2.5,6.1,5.6,7.9,9.5c0.9,2.1,1.6,4.2,1.9,6.5
	c0.2,1.6,0.3,3.2,0.2,4.7c-0.4,6.8-3.2,12.6-8.4,17.1c-0.7,0.6-1.5,1.1-2.3,1.7c-0.2,0.2-0.3,0.1-0.5-0.1c-2.1-3.2-4.2-6.4-6.3-9.6
	c-4.4-6.6-8.8-13.2-13.1-19.8c-0.6-0.9-1.9-1.1-2.6-0.8c-0.6,0.2-0.8,0.5-0.8,1.1c0,6.9,0,13.9,0,20.8c0,0.8,0.3,1.2,1,1.4
	c0.6,0.2,1.1,0.1,1.7-0.1c0.4-0.2,0.6-0.5,0.6-1c0-0.1,0-0.3,0-0.4c0-5,0-9.9,0-14.9C18.4,21.4,18.4,21.3,18.5,21.1
	C18.4,21.1,18.5,21.1,18.5,21.1z M34.9,34C35,34,35,34,34.9,34c0.1-0.1,0.1-0.2,0.1-0.3c0-6.2,0-12.4,0-18.6c0-0.5-0.2-0.8-0.7-1
	c-0.6-0.2-1.2-0.3-1.9-0.1c-0.6,0.2-0.8,0.5-0.8,1.1c0,4.5,0,9,0,13.5c0,0.2,0,0.3,0.1,0.5c1,1.5,2,3.1,3,4.6
	C34.8,33.8,34.9,33.9,34.9,34z"/>
</svg>
