<?xml version="1.0" encoding="utf-8"?>
<!-- Generator: Adobe Illustrator 23.1.0, SVG Export Plug-In . SVG Version: 6.00 Build 0)  -->
<svg version="1.1" id="Слой_1" xmlns="http://www.w3.org/2000/svg" xmlns:xlink="http://www.w3.org/1999/xlink" x="0px" y="0px"
	 viewBox="0 0 50 50" style="enable-background:new 0 0 50 50;" xml:space="preserve">
<style type="text/css">
	.st0{fill:#82CC29;}
</style>
<path class="st0" d="M47.1,25.1c0,3.4,0,6.9,0,10.3c0,1.7-0.7,2.9-2.1,3.7C39,42.5,33,46,27,49.4c-1.4,0.8-2.7,0.8-4.1,0
	c-1.9-1.1-3.9-2.3-5.8-3.4c-0.2-0.1-0.4-0.2-0.6-0.4c-0.2-0.2-0.2-0.3,0.1-0.4c0.1,0,0.2-0.1,0.2-0.1c0.9-0.3,1.7-0.6,2.5-1.1
	c0.3-0.2,0.6-0.2,0.9,0c1.4,0.9,2.8,1.7,4.3,2.6c0.3,0.2,0.6,0.2,0.9,0c6-3.4,12-6.9,18-10.3c0.3-0.2,0.4-0.4,0.4-0.8
	c0-6.9,0-13.9,0-20.8c0-0.3-0.1-0.6-0.4-0.7c-6-3.5-12-6.9-18-10.4c-0.3-0.2-0.5-0.2-0.8,0c-6,3.5-12,6.9-18,10.3
	c-0.3,0.2-0.5,0.4-0.5,0.8c0,6.9,0,13.7,0,20.6c0,0.4,0.1,0.6,0.5,0.8c1.6,0.9,3.1,1.8,4.7,2.7c0.6,0.4,1.3,0.6,2,0.6
	c1.5,0,2.6-1,2.6-2.5c0-3.7,0-7.4,0-11.1c0-3.1,0-6.2,0-9.3c0-0.6,0.1-0.7,0.7-0.7c0.7,0,1.3,0,2,0c0.5,0,0.7,0.2,0.7,0.7
	c0,6.9,0,13.8,0,20.7c0,0.8-0.1,1.5-0.3,2.2c-0.6,2-2.1,3.2-4.2,3.4c-1.9,0.2-3.7-0.3-5.3-1.2c-1.5-0.9-3.1-1.7-4.6-2.6
	c-1.3-0.7-1.9-1.9-1.9-3.4c0-7,0-14.1,0-21.1c0-1.5,0.7-2.6,2-3.4C7,9.9,9.1,8.7,11.2,7.5C15.1,5.2,19,3,22.9,0.7
	c1.4-0.8,2.8-0.8,4.2,0c6,3.4,12,6.9,18,10.3c1.4,0.8,2.1,2,2.1,3.6C47.1,18.2,47.1,21.6,47.1,25.1z"/>
<path class="st0" d="M30.5,35.4c-1.7,0-3.4-0.1-5-0.7c-1.6-0.5-2.9-1.4-3.8-2.9c-0.5-1-0.8-2-0.7-3.1c0-0.4,0.2-0.6,0.6-0.6
	c0.8,0,1.5,0,2.3,0c0.4,0,0.5,0.2,0.6,0.6c0.1,0.7,0.3,1.3,0.7,1.9c0.6,0.8,1.5,1.2,2.4,1.4c2.1,0.4,4.1,0.4,6.2,0
	c0.8-0.2,1.6-0.5,2.1-1.2c0.4-0.6,0.5-1.3,0.3-2.1c-0.2-0.7-0.8-0.9-1.4-1.1c-1.1-0.4-2.3-0.6-3.5-0.7c-1.5-0.2-3.1-0.3-4.6-0.6
	c-1-0.2-1.9-0.5-2.7-1c-1.3-0.8-2-1.9-2.1-3.4c-0.1-1.6,0.2-3.1,1.3-4.3c0.9-1,2-1.5,3.3-1.9c1.7-0.5,3.4-0.5,5.1-0.4
	c1.4,0.1,2.7,0.3,4,0.8c2.2,0.9,3.4,2.7,3.7,5c0,0.1,0,0.3,0.1,0.4c0,0.4-0.2,0.7-0.6,0.7c-0.8,0-1.6,0-2.3,0
	c-0.3,0-0.4-0.2-0.5-0.4c-0.1-0.2-0.1-0.4-0.2-0.5c-0.4-1.4-1.3-2.3-2.7-2.6c-1.9-0.4-3.8-0.4-5.7,0.1c-1,0.3-1.9,1-1.8,2.4
	c0,0.5,0.2,0.8,0.6,1c0.7,0.4,1.4,0.5,2.2,0.7c1.8,0.4,3.7,0.5,5.6,0.8c1.3,0.2,2.6,0.5,3.8,1.2c1.5,0.8,2.2,2,2.3,3.6
	c0.1,1.1,0,2.1-0.5,3c-0.7,1.5-1.9,2.4-3.3,3C34.2,35.3,32.4,35.5,30.5,35.4z"/>
</svg>
