<?xml version="1.0" encoding="utf-8"?>
<!-- Generator: Adobe Illustrator 23.1.0, SVG Export Plug-In . SVG Version: 6.00 Build 0)  -->
<svg version="1.1" id="Слой_1" xmlns="http://www.w3.org/2000/svg" xmlns:xlink="http://www.w3.org/1999/xlink" x="0px" y="0px"
	 viewBox="0 0 50 50" style="enable-background:new 0 0 50 50;" xml:space="preserve">
<style type="text/css">
	.st0{fill:#02D7FE;}
</style>
<path class="st0" d="M10.3,39.3c0-1.8,0.3-3.6,0.7-5.4c0.1-0.3,0.1-0.3-0.3-0.4c-2-0.6-3.9-1.4-5.7-2.5c-1.2-0.8-2.3-1.7-3.2-2.8
	c-0.6-0.9-1.1-1.8-1.1-3c0-1.1,0.4-2,1-2.8c0.8-1.1,1.9-2,3-2.7c1.9-1.2,3.9-2,6-2.6c0.4-0.1,0.4-0.1,0.3-0.5
	c-0.5-2-0.8-4.1-0.8-6.2c0-1.4,0.2-2.7,0.7-4c0.3-0.9,0.8-1.6,1.6-2.2c0.9-0.7,1.9-0.9,2.9-0.8c1.6,0.1,3,0.6,4.4,1.3
	c1.9,1,3.7,2.4,5.3,3.9c0.1,0.1,0.2,0.1,0.3,0c1.6-1.6,3.4-3,5.5-4c1.1-0.6,2.3-1,3.6-1.2c1.3-0.2,2.5,0,3.5,0.8
	c0.8,0.6,1.3,1.5,1.7,2.5c0.4,1,0.5,2.1,0.6,3.1c0.2,2.4-0.2,4.7-0.7,7c0,0.2,0,0.2,0.2,0.3c2.1,0.6,4,1.4,5.9,2.5
	c1.2,0.7,2.3,1.6,3.1,2.7c0.7,0.9,1.1,1.9,1.1,3c0,1-0.4,1.9-1,2.7c-0.8,1.1-1.8,1.9-3,2.7c-1.8,1.2-3.9,2-5.9,2.6
	c-0.2,0.1-0.2,0.1-0.2,0.3c0.5,2,0.8,4.1,0.7,6.2c-0.1,1.5-0.3,3-1,4.4c-0.5,1-1.1,1.8-2.1,2.3c-0.8,0.4-1.7,0.5-2.7,0.4
	c-1.7-0.2-3.2-0.9-4.7-1.7c-1.6-1-3.1-2.2-4.5-3.5c-0.1-0.1-0.2-0.1-0.3,0c-1.8,1.7-3.7,3.1-5.9,4.2c-1.1,0.5-2.3,0.9-3.6,1
	c-2.2,0.2-3.9-0.8-4.8-2.9c-0.5-1.1-0.7-2.2-0.8-3.4C10.3,40.3,10.3,39.8,10.3,39.3z M25.4,33.2c1.4,0,2.8,0,4.3-0.1
	c0.2,0,0.3-0.1,0.4-0.2c1.6-2.4,3-4.8,4.2-7.4c0.1-0.1,0.1-0.2,0-0.4c-1.3-2.5-2.7-5-4.3-7.4c-0.1-0.1-0.2-0.2-0.4-0.2
	c-1.1-0.1-2.2-0.1-3.3-0.1c-1.8,0-3.5,0-5.3,0.1c-0.2,0-0.2,0.1-0.3,0.2c-1.6,2.4-3,4.9-4.3,7.4c-0.1,0.1-0.1,0.2,0,0.3
	c1.3,2.6,2.7,5.1,4.3,7.5C20.9,33,21,33,21.2,33C22.6,33.1,24,33.2,25.4,33.2z M11.7,19.1C11.6,19.1,11.6,19.1,11.7,19.1
	c-0.3,0.1-0.6,0.2-0.8,0.2c-1.9,0.6-3.7,1.4-5.4,2.5c-0.8,0.5-1.5,1.2-2,2c-0.3,0.5-0.5,1-0.5,1.6C3,26,3.3,26.5,3.7,27
	c0.6,0.7,1.3,1.3,2,1.9c1.8,1.2,3.7,2,5.8,2.7c0.2,0.1,0.3,0,0.3-0.2c0.6-2,1.4-4,2.3-5.9c0.1-0.1,0.1-0.2,0-0.4c-0.5-1-0.9-2-1.3-3
	c-0.4-0.9-0.7-1.9-1-2.8C11.8,19.2,11.8,19.1,11.7,19.1z M15.3,45c0.9,0,1.9-0.2,2.8-0.6c2.2-0.9,4-2.4,5.8-4c0.1-0.1,0.1-0.1,0-0.2
	c-1.4-1.6-2.8-3.2-4-5c-0.1-0.1-0.2-0.2-0.3-0.2c-0.9-0.1-1.8-0.2-2.7-0.3c-1.2-0.2-2.4-0.4-3.6-0.6c-0.1,0-0.2,0-0.2,0.1
	c0,0.2-0.1,0.4-0.1,0.5c-0.5,2.1-0.8,4.3-0.5,6.4c0.1,0.8,0.3,1.6,0.7,2.4C13.7,44.6,14.4,45,15.3,45z M38.5,39.4
	c0-1.9-0.3-3.6-0.7-5.2c0-0.2-0.1-0.2-0.2-0.1c-2.1,0.5-4.2,0.8-6.3,1c-0.1,0-0.2,0.1-0.3,0.2c-1.2,1.7-2.5,3.4-3.9,5
	c-0.1,0.1-0.1,0.2,0,0.3c0.4,0.3,0.7,0.6,1,0.9c1.2,1.1,2.6,2,4,2.8c1,0.5,2,0.9,3.1,0.9c1,0,1.7-0.3,2.2-1.2
	c0.2-0.3,0.3-0.6,0.4-0.8C38.3,41.8,38.4,40.5,38.5,39.4z M15.4,5.5c-1,0-1.7,0.4-2.2,1.3c-0.2,0.4-0.4,0.9-0.5,1.3
	c-0.3,1.2-0.3,2.5-0.3,3.7c0.1,1.5,0.4,3,0.7,4.5c0,0.1,0.1,0.2,0.2,0.1c0.7-0.2,1.4-0.3,2.1-0.4c1.3-0.2,2.7-0.4,4-0.5
	c0.2,0,0.3-0.1,0.4-0.2c1.2-1.7,2.5-3.3,3.9-4.8c0.1-0.1,0.1-0.2,0-0.3c-0.5-0.5-1-0.9-1.5-1.3c-1.3-1.1-2.7-2-4.2-2.6
	C17.2,5.8,16.3,5.5,15.4,5.5z M38.4,11.1c0-0.6,0-1.2-0.1-1.8c-0.1-0.9-0.3-1.7-0.7-2.5C37,5.8,36.2,5.4,35,5.5
	c-0.7,0.1-1.4,0.3-2,0.5c-2.3,1-4.2,2.5-6,4.2c-0.1,0.1-0.1,0.1,0,0.2c1.4,1.6,2.7,3.2,3.9,4.9c0.1,0.1,0.2,0.2,0.3,0.2
	c0.5,0.1,1.1,0.1,1.6,0.2c1.5,0.2,3.1,0.5,4.6,0.8c0.1,0,0.2,0,0.2-0.1C38.1,14.6,38.4,12.9,38.4,11.1z M47.9,25.2
	c0-0.6-0.3-1.1-0.6-1.5c-0.5-0.6-1-1.2-1.7-1.6c-1.9-1.4-4.1-2.3-6.4-2.9c-0.1,0-0.1,0-0.2,0.1c-0.6,2-1.4,3.9-2.3,5.8
	c-0.1,0.1-0.1,0.2,0,0.3c0.3,0.7,0.6,1.3,0.9,2c0.5,1.3,1,2.6,1.5,3.9c0,0.1,0.1,0.2,0.2,0.1c0.3-0.1,0.6-0.2,1-0.3
	c1.7-0.6,3.4-1.3,4.9-2.4c0.9-0.6,1.6-1.3,2.2-2.2C47.7,26.1,47.9,25.7,47.9,25.2z M32.6,32.8c0.4-0.1,0.8-0.1,1.1-0.2
	c1.1-0.2,2.2-0.3,3.3-0.6c0.2,0,0.2-0.1,0.1-0.2c-0.4-1.3-1-2.7-1.5-3.9c0,0,0-0.1-0.1-0.1C34.6,29.4,33.6,31.1,32.6,32.8z
	 M22.6,35.2C22.6,35.3,22.6,35.3,22.6,35.2c0.9,1.2,1.8,2.3,2.8,3.4c0.1,0.1,0.2,0.1,0.3,0c0.9-1,1.8-2.1,2.6-3.2
	c0-0.1,0.1-0.1,0.1-0.2c0-0.1-0.1,0-0.2,0c-1.4,0-2.9,0.1-4.4,0C23.4,35.2,23,35.2,22.6,35.2z M18.3,32.8c-1.1-1.7-2-3.3-2.9-5
	c0,0.1-0.1,0.1-0.1,0.1c-0.6,1.3-1.1,2.7-1.5,4c-0.1,0.2,0,0.2,0.1,0.2C15.4,32.4,16.8,32.6,18.3,32.8z M22.5,15.3
	c1.9-0.1,3.8-0.1,5.7,0c0-0.1,0-0.1,0-0.1c-0.8-1.1-1.7-2.2-2.7-3.3c-0.1-0.1-0.1-0.1-0.2,0c-0.3,0.4-0.7,0.8-1,1.1
	C23.7,13.8,23.1,14.5,22.5,15.3z M32.6,17.8c1,1.7,2,3.3,2.9,5c0,0,0,0,0.1-0.1c0.6-1.3,1.1-2.6,1.5-4c0-0.1,0-0.2-0.1-0.2
	c-1.1-0.2-2.1-0.4-3.2-0.6C33.4,17.9,33,17.8,32.6,17.8z M18.2,17.8c-0.4,0.1-0.9,0.1-1.3,0.2c-1,0.1-2,0.3-2.9,0.5
	c-0.1,0-0.2,0.1-0.1,0.2c0.4,1.3,0.9,2.6,1.4,3.9c0,0,0,0.1,0.1,0.1C16.3,21.1,17.2,19.4,18.2,17.8z"/>
<path class="st0" d="M21,25.2c0-2.4,2-4.4,4.4-4.4c2.4,0,4.4,1.9,4.4,4.4c0,2.3-1.8,4.4-4.4,4.4C22.8,29.6,21,27.5,21,25.2z"/>
</svg>
