<?xml version="1.0" encoding="utf-8"?>
<!-- Generator: Adobe Illustrator 23.1.0, SVG Export Plug-In . SVG Version: 6.00 Build 0)  -->
<svg version="1.1" id="Слой_1" xmlns="http://www.w3.org/2000/svg" xmlns:xlink="http://www.w3.org/1999/xlink" x="0px" y="0px"
	 viewBox="0 0 100 100" style="enable-background:new 0 0 100 100;" xml:space="preserve">
<style type="text/css">
	.st0{fill:none;}
	.st1{stroke:#000000;stroke-width:0.25;stroke-miterlimit:10;}
</style>
<g>
	<circle class="st0" cx="50.5" cy="50.5" r="37.5"/>
	<path class="st1" d="M50.6,5.5l-0.5,0c-0.1-0.4-0.4-0.7-0.7-1.1s-0.6-0.6-0.9-0.6c-0.1,0-0.3,0-0.5,0c-0.2,0-0.4,0-0.7,0l-1.6,0.1
		L46,8l1.1-0.1c0.3,0,0.6-0.1,0.8-0.2c0.2-0.1,0.3-0.2,0.5-0.4c0.1-0.1,0.2-0.3,0.2-0.5c0.1-0.2,0.1-0.4,0.1-0.7l0.5,0l0.3,3.8
		l-0.5,0c0-0.2-0.1-0.4-0.2-0.7c-0.1-0.2-0.2-0.4-0.3-0.5c-0.2-0.2-0.3-0.3-0.5-0.3s-0.5-0.1-0.8,0l-1.1,0.1l0.3,3.3
		c0,0.1,0.1,0.3,0.1,0.4c0.1,0.1,0.2,0.2,0.3,0.3c0.1,0,0.2,0.1,0.5,0.1s0.4,0,0.5,0l0,0.5l-4.2,0.4l0-0.5c0.1,0,0.3-0.1,0.5-0.1
		c0.2,0,0.4-0.1,0.4-0.1c0.1-0.1,0.2-0.2,0.3-0.3c0.1-0.1,0.1-0.3,0.1-0.4l-0.6-7c0-0.1,0-0.3-0.1-0.4c-0.1-0.1-0.2-0.2-0.3-0.3
		c-0.1,0-0.3-0.1-0.5-0.1s-0.4,0-0.5,0l0-0.5l7.6-0.6L50.6,5.5z"/>
	<path class="st1" d="M60.8,14.1l-2.6-0.4c-0.4-1-0.9-1.8-1.2-2.5c-0.4-0.7-0.8-1.5-1.2-2.2l-1-0.1l-0.4,3c0,0.2,0,0.3,0,0.4
		c0,0.1,0.1,0.2,0.3,0.3c0.1,0,0.2,0.1,0.4,0.1s0.4,0.1,0.5,0.1l-0.1,0.5l-4.1-0.6l0.1-0.5c0.1,0,0.3,0,0.5,0c0.2,0,0.4,0,0.4,0
		c0.1,0,0.3-0.1,0.3-0.2s0.1-0.2,0.2-0.4l1-6.9c0-0.2,0-0.3,0-0.4c0-0.1-0.1-0.2-0.3-0.3c-0.1-0.1-0.2-0.1-0.4-0.2
		c-0.2-0.1-0.3-0.1-0.5-0.1l0.1-0.5l4.4,0.6c0.4,0.1,0.8,0.2,1.1,0.3c0.3,0.1,0.6,0.3,0.9,0.5c0.3,0.2,0.4,0.5,0.6,0.8
		S60,6.1,60,6.5c-0.1,0.4-0.2,0.7-0.3,1c-0.2,0.3-0.4,0.5-0.6,0.7c-0.2,0.2-0.5,0.3-0.8,0.4s-0.6,0.2-1,0.2c0.4,0.7,0.7,1.3,1,1.7
		c0.3,0.5,0.6,1,0.9,1.7c0.2,0.3,0.3,0.5,0.5,0.7c0.1,0.2,0.3,0.3,0.4,0.4c0.1,0.1,0.3,0.1,0.4,0.2c0.2,0.1,0.3,0.1,0.4,0.1
		L60.8,14.1z M58.3,6.4c0.1-0.6,0-1.1-0.3-1.5c-0.3-0.4-0.7-0.6-1.3-0.7l-1.2-0.2l-0.6,4.1l0.9,0.1c0.6,0.1,1.2,0,1.6-0.4
		C57.9,7.6,58.2,7.1,58.3,6.4z"/>
	<path class="st1" d="M71,9.1c0.2,0.6,0.3,1.2,0.3,1.9c0,0.7-0.2,1.4-0.5,2.1c-0.3,0.7-0.7,1.3-1.1,1.8c-0.5,0.5-1,0.9-1.6,1.1
		c-0.6,0.2-1.1,0.4-1.8,0.4c-0.6,0-1.2-0.1-1.8-0.4c-0.6-0.3-1.2-0.6-1.6-1.1c-0.4-0.5-0.8-1-1-1.5c-0.2-0.6-0.3-1.2-0.3-1.9
		c0-0.7,0.2-1.3,0.4-2c0.3-0.7,0.7-1.3,1.1-1.8c0.5-0.5,1-0.8,1.6-1.1c0.6-0.3,1.2-0.4,1.8-0.4c0.6,0,1.2,0.1,1.8,0.3
		c0.6,0.2,1.1,0.6,1.5,1C70.5,8.1,70.8,8.6,71,9.1z M67.5,15.1c0.4-0.3,0.7-0.7,1-1.1c0.3-0.4,0.6-1,0.8-1.6
		c0.3-0.6,0.4-1.2,0.5-1.8c0.1-0.6,0.1-1.1,0-1.5c-0.1-0.5-0.3-0.9-0.5-1.2c-0.3-0.3-0.6-0.6-1.1-0.8c-0.5-0.2-1-0.3-1.4-0.2
		S66,7.3,65.6,7.6c-0.4,0.3-0.7,0.7-1,1.1c-0.3,0.5-0.6,1-0.8,1.5c-0.2,0.6-0.4,1.2-0.5,1.7s-0.1,1,0,1.5c0.1,0.5,0.2,0.9,0.5,1.2
		s0.6,0.6,1.1,0.8c0.5,0.2,0.9,0.2,1.4,0.2C66.7,15.6,67.1,15.4,67.5,15.1z"/>
	<path class="st1" d="M83,16.6c-0.1-0.1-0.3-0.2-0.5-0.3c-0.3-0.1-0.4-0.2-0.6-0.2c-0.2,0-0.4,0.1-0.7,0.3c-0.2,0.2-0.5,0.5-0.8,0.9
		L76.1,23l-0.5-0.4l0.1-9.9l-3,4c-0.3,0.4-0.6,0.8-0.7,1.1c-0.1,0.3-0.2,0.5-0.1,0.7c0,0.1,0.1,0.3,0.3,0.6s0.4,0.4,0.4,0.5L72.4,20
		l-3.2-2.4l0.3-0.4c0.1,0.1,0.3,0.2,0.6,0.3s0.5,0.2,0.6,0.2c0.2,0,0.4-0.1,0.6-0.3s0.5-0.5,0.9-1l2.9-3.8c0.1-0.2,0.2-0.4,0.3-0.6
		c0.1-0.2,0.1-0.4,0.1-0.6c0-0.2-0.1-0.5-0.3-0.7c-0.2-0.3-0.3-0.4-0.4-0.6L75,9.8l2.2,1.7L77,20.7l2.8-3.7c0.3-0.4,0.6-0.8,0.7-1.1
		c0.1-0.3,0.2-0.5,0.1-0.7c0-0.1-0.2-0.3-0.3-0.6c-0.2-0.2-0.3-0.4-0.4-0.5l0.3-0.4l3.1,2.4L83,16.6z"/>
	<path class="st1" d="M87.8,25.8l-0.3-0.4c0.1-0.1,0.2-0.3,0.3-0.5c0.1-0.2,0.2-0.5,0.3-0.7c0.1-0.2,0.1-0.5,0.1-0.7s0-0.4-0.1-0.5
		c-0.1-0.1-0.2-0.3-0.3-0.4c-0.1-0.2-0.3-0.3-0.4-0.5l-0.3-0.3l-6,4.9C81.1,26.7,81,26.8,81,27s-0.1,0.3,0,0.4
		c0,0.1,0.1,0.2,0.2,0.5s0.2,0.4,0.3,0.5l-0.4,0.3l-2.9-3.6l0.4-0.3c0.1,0.1,0.2,0.2,0.4,0.4c0.2,0.2,0.3,0.3,0.4,0.4
		c0.1,0.1,0.3,0.1,0.4,0.1c0.1,0,0.3-0.1,0.4-0.2l6.1-4.9l-0.2-0.3c-0.1-0.1-0.2-0.2-0.3-0.4c-0.1-0.2-0.3-0.3-0.4-0.4
		c-0.1-0.1-0.3-0.2-0.5-0.2c-0.2,0-0.5,0-0.7,0s-0.5,0.1-0.7,0.1c-0.2,0.1-0.4,0.1-0.6,0.2l-0.3-0.4l2-1.7l5.3,6.6L87.8,25.8z"/>
	<path class="st1" d="M88.4,35.6l-1.7-3.7l1-0.4l1.7,3.7L88.4,35.6z"/>
	<path class="st1" d="M91,48l-2.8,0.3l-1.3-7.9l0.5-0.1c0,0.1,0.1,0.3,0.1,0.5c0.1,0.2,0.1,0.4,0.2,0.4c0.1,0.1,0.2,0.2,0.3,0.3
		s0.3,0,0.4,0l6.9-1.1c0.1,0,0.3-0.1,0.4-0.1c0.1-0.1,0.2-0.2,0.2-0.4c0-0.1,0.1-0.3,0.1-0.5c0-0.2,0-0.4,0-0.5l0.5-0.1l1.2,7.4
		l-2.3,0.4l-0.1-0.5c0.3-0.1,0.7-0.4,1-0.8c0.3-0.4,0.5-0.7,0.5-1c0-0.1,0-0.3,0-0.5c0-0.2-0.1-0.4-0.1-0.7l-0.3-1.5l-3.8,0.6
		l0.2,1.1c0.1,0.3,0.1,0.6,0.2,0.7c0.1,0.1,0.2,0.3,0.4,0.4c0.1,0.1,0.3,0.1,0.6,0.2c0.2,0,0.4,0,0.6,0l0.1,0.5l-3.7,0.6l-0.1-0.5
		c0.2-0.1,0.4-0.1,0.7-0.3s0.4-0.2,0.5-0.3c0.2-0.2,0.2-0.3,0.3-0.5s0-0.4,0-0.7L92,42.4l-2.9,0.5c-0.3,0-0.5,0.1-0.7,0.2
		c-0.2,0.1-0.3,0.2-0.3,0.3C88,43.5,88,43.6,88,43.8s0,0.5,0.1,0.9c0,0.1,0.1,0.3,0.1,0.6c0,0.2,0.1,0.4,0.1,0.6
		c0,0.2,0.1,0.3,0.2,0.5s0.2,0.3,0.3,0.4c0.3,0.2,0.6,0.3,1.1,0.5c0.5,0.2,0.8,0.2,1,0.3L91,48z"/>
	<path class="st1" d="M96.7,59.5c0-0.1,0-0.3-0.1-0.6c0-0.3-0.1-0.5-0.2-0.6c-0.1-0.2-0.3-0.3-0.6-0.4c-0.3-0.1-0.7-0.1-1.2-0.2
		l-7.1-0.6l0-0.6l8.4-5.2l-5-0.4c-0.6,0-1,0-1.3,0c-0.3,0-0.5,0.1-0.7,0.3c-0.1,0.1-0.2,0.3-0.3,0.6s-0.2,0.5-0.2,0.6l-0.5,0l0.3-4
		l0.5,0c0,0.1,0,0.3,0.1,0.6c0.1,0.3,0.1,0.5,0.2,0.6c0.1,0.2,0.3,0.3,0.6,0.4c0.3,0.1,0.7,0.1,1.3,0.2l4.8,0.4c0.2,0,0.4,0,0.6-0.1
		s0.4-0.1,0.5-0.3c0.2-0.2,0.3-0.4,0.4-0.6s0.2-0.5,0.2-0.7l0.5,0l-0.2,2.8l-7.8,4.9l4.6,0.4c0.6,0,1,0,1.3,0c0.3,0,0.5-0.1,0.6-0.3
		c0.1-0.1,0.2-0.3,0.3-0.6c0.1-0.3,0.2-0.5,0.2-0.6l0.5,0l-0.3,3.9L96.7,59.5z"/>
	<path class="st1" d="M88.7,69.2c-0.8-0.3-1.4-0.7-1.9-1.2c-0.5-0.5-0.8-1-1-1.6c-0.2-0.6-0.3-1.2-0.2-1.9s0.2-1.3,0.4-1.9l1.4-3.8
		l0.5,0.2c0,0.1-0.1,0.3-0.1,0.5c0,0.2-0.1,0.3-0.1,0.4c0,0.1,0.1,0.3,0.1,0.4c0.1,0.1,0.2,0.2,0.4,0.2l6.6,2.4
		c0.1,0.1,0.3,0.1,0.4,0.1c0.1,0,0.3-0.1,0.4-0.2c0.1-0.1,0.2-0.2,0.3-0.4c0.1-0.1,0.2-0.3,0.2-0.4l0.5,0.2l-1.4,4
		c-0.2,0.5-0.5,1.1-0.8,1.5c-0.4,0.5-0.8,0.9-1.2,1.1c-0.6,0.4-1.2,0.6-2,0.7C90.4,69.6,89.6,69.5,88.7,69.2z M89.3,67.6
		c0.6,0.2,1.2,0.3,1.8,0.3s1.1-0.1,1.6-0.3c0.5-0.2,0.9-0.4,1.2-0.8c0.4-0.4,0.6-0.8,0.8-1.3c0.1-0.2,0.1-0.4,0.2-0.6
		c0.1-0.2,0.1-0.4,0.2-0.5L88,62c-0.4-0.1-0.7-0.1-0.9,0.1c-0.2,0.2-0.4,0.5-0.6,1c-0.2,0.5-0.3,1.1-0.2,1.5c0,0.5,0.2,0.9,0.5,1.3
		c0.3,0.4,0.6,0.7,1,1C88.2,67.1,88.7,67.4,89.3,67.6z"/>
	<path class="st1" d="M80.8,86.7c0.1-0.1,0.1-0.2,0.2-0.3c0.1-0.1,0.1-0.3,0.1-0.4c0-0.2,0-0.4,0-0.5s-0.1-0.3-0.2-0.6
		c-0.6-0.9-1.2-2-2-3.3c-0.8-1.3-1.6-2.6-2.4-4l0.4-0.5l7.2,3.1l-3.9-6.9l0.4-0.5c1.5,0.7,3,1.5,4.6,2.2s2.7,1.3,3.2,1.6
		c0.1,0.1,0.3,0.1,0.4,0.1c0.1,0,0.3,0,0.4,0c0.1,0,0.3-0.1,0.4-0.2c0.1-0.1,0.2-0.2,0.3-0.3l0.4,0.3l-2.6,3l-0.4-0.3
		c0.2-0.3,0.4-0.5,0.5-0.7s0.1-0.4,0.1-0.4c0,0-0.1-0.1-0.1-0.1c-0.1,0-0.1-0.1-0.2-0.1c-0.4-0.2-1-0.5-1.9-0.9s-2.2-1-3.9-1.9
		l3.8,6.6l-0.4,0.5l-7.1-3.1c0.6,1,1.2,1.9,1.7,2.6c0.5,0.7,0.9,1.4,1.2,1.9c0.2,0.4,0.4,0.6,0.5,0.7s0.2,0.2,0.3,0.3
		c0.1,0.1,0.3,0.1,0.5,0s0.5-0.3,0.8-0.6l0.4,0.3l-2.3,2.6L80.8,86.7z"/>
	<path class="st1" d="M68.5,86.9l-1.4-2.5l6.8-4.3l0.3,0.4c-0.1,0.1-0.3,0.2-0.4,0.3c-0.2,0.1-0.3,0.3-0.3,0.3
		c-0.1,0.1-0.1,0.3-0.1,0.4c0,0.1,0.1,0.3,0.2,0.4l3.7,5.9c0.1,0.1,0.2,0.2,0.3,0.3s0.2,0.1,0.4,0.1c0.1,0,0.3-0.1,0.5-0.1
		c0.2-0.1,0.4-0.1,0.5-0.2l0.3,0.4l-6.3,4l-1.3-2l0.4-0.3c0.3,0.2,0.6,0.4,1.1,0.6c0.5,0.2,0.8,0.2,1.1,0.1c0.1-0.1,0.3-0.1,0.4-0.2
		c0.2-0.1,0.4-0.2,0.6-0.3l1.3-0.8l-2.1-3.3l-0.9,0.6c-0.3,0.2-0.5,0.4-0.6,0.5s-0.2,0.3-0.2,0.5c0,0.2,0,0.4,0.1,0.6
		s0.1,0.4,0.2,0.6l-0.4,0.3l-2-3.2l0.4-0.3c0.1,0.2,0.3,0.3,0.5,0.5c0.2,0.2,0.4,0.3,0.5,0.3c0.2,0.1,0.4,0.1,0.6,0
		c0.2,0,0.4-0.2,0.6-0.3l0.9-0.6l-1.6-2.5c-0.2-0.2-0.3-0.4-0.4-0.5c-0.1-0.1-0.3-0.2-0.4-0.2s-0.3,0-0.5,0.1
		c-0.2,0.1-0.4,0.2-0.8,0.4c-0.1,0.1-0.3,0.2-0.5,0.3s-0.4,0.3-0.5,0.4c-0.1,0.1-0.3,0.2-0.4,0.4c-0.1,0.1-0.2,0.3-0.2,0.4
		c-0.1,0.3-0.1,0.7,0,1.2c0,0.5,0.1,0.9,0.2,1.1L68.5,86.9z"/>
	<path class="st1" d="M61.6,91.1c-0.3-0.1-0.6-0.2-0.9-0.5c-0.3-0.2-0.5-0.6-0.6-1c-0.1-0.4-0.2-0.8-0.1-1.2c0.1-0.4,0.2-0.7,0.5-1
		c0.2-0.3,0.5-0.6,0.8-0.8c0.3-0.2,0.7-0.4,1.1-0.5l4.3-1.5l0.2,0.5c-0.1,0-0.2,0.1-0.4,0.2c-0.2,0.1-0.3,0.2-0.4,0.2
		c-0.1,0.1-0.2,0.2-0.2,0.3s0,0.3,0.1,0.4l2.3,6.6c0.1,0.1,0.1,0.3,0.2,0.4c0.1,0.1,0.2,0.2,0.4,0.2c0.2,0,0.3,0,0.5,0
		c0.2,0,0.3,0,0.4-0.1l0.2,0.5l-4.2,1.5c-0.3,0.1-0.7,0.2-1,0.2c-0.3,0-0.6,0-1,0c-0.3-0.1-0.6-0.2-0.8-0.4
		c-0.3-0.2-0.4-0.5-0.6-0.9c-0.1-0.3-0.2-0.6-0.1-0.9c0-0.3,0.1-0.6,0.3-0.8c0.1-0.2,0.3-0.5,0.5-0.7c0.2-0.2,0.5-0.4,0.7-0.6l0-0.1
		c-0.3,0.1-0.6,0.1-0.9,0.1S61.9,91.2,61.6,91.1z M61.7,89.4c0.2,0.5,0.5,0.9,1,1.1c0.5,0.2,1.1,0.2,1.7,0c0.3-0.1,0.5-0.2,0.7-0.3
		c0.2-0.1,0.3-0.1,0.4-0.2l-1.1-3.2c-0.1-0.3-0.3-0.4-0.5-0.5c-0.3-0.1-0.6,0-1,0.1c-0.6,0.2-1.1,0.6-1.3,1.1
		C61.4,88,61.5,88.6,61.7,89.4z M63.6,92c-0.1,0.2-0.1,0.5-0.1,0.7c0,0.2,0.1,0.5,0.2,0.8c0.2,0.5,0.5,0.9,0.8,1
		c0.4,0.2,0.9,0.2,1.5,0c0.1,0,0.3-0.1,0.5-0.2s0.4-0.1,0.5-0.2l-1.2-3.5L65,90.9c-0.4,0.1-0.6,0.3-0.9,0.5
		C63.9,91.5,63.7,91.7,63.6,92z"/>
	<path class="st1" d="M46.3,92.9c0-0.8,0.1-1.5,0.4-2.2c0.3-0.6,0.7-1.1,1.2-1.5c0.5-0.4,1.1-0.7,1.7-0.9c0.6-0.2,1.3-0.3,1.9-0.3
		l4-0.1l0,0.5c-0.1,0-0.3,0-0.5,0c-0.2,0-0.4,0.1-0.4,0.1c-0.1,0.1-0.2,0.2-0.3,0.3s-0.1,0.3-0.1,0.4l0.1,7c0,0.2,0,0.3,0.1,0.4
		s0.2,0.2,0.3,0.3c0.1,0.1,0.3,0.1,0.5,0.1c0.2,0,0.3,0,0.4,0.1l0,0.5l-4.2,0.1c-0.6,0-1.2-0.1-1.7-0.2c-0.6-0.2-1.1-0.4-1.5-0.7
		c-0.6-0.4-1-0.9-1.4-1.6C46.5,94.5,46.3,93.8,46.3,92.9z M48,92.8c0,0.7,0.1,1.2,0.3,1.8c0.2,0.5,0.4,1,0.8,1.4
		c0.3,0.4,0.7,0.7,1.2,0.9c0.5,0.2,1,0.3,1.5,0.3c0.2,0,0.4,0,0.6,0c0.2,0,0.4,0,0.5,0l-0.1-7.5c0-0.4-0.1-0.7-0.4-0.9
		c-0.2-0.2-0.6-0.2-1.1-0.2c-0.6,0-1.1,0.1-1.5,0.3c-0.4,0.2-0.8,0.5-1,0.9c-0.3,0.4-0.5,0.8-0.6,1.3C48,91.6,48,92.2,48,92.8z"/>
	<path class="st1" d="M37.1,88.8l0.8-2.7l7.8,1.8l-0.1,0.5c-0.1,0-0.3,0-0.5-0.1s-0.4,0-0.5,0c-0.2,0-0.3,0.1-0.4,0.2
		c-0.1,0.1-0.1,0.2-0.2,0.4l-1.6,6.8c0,0.1,0,0.3,0,0.4s0.1,0.2,0.2,0.3c0.1,0.1,0.3,0.2,0.4,0.3c0.2,0.1,0.3,0.2,0.5,0.2l-0.1,0.5
		l-7.3-1.7l0.5-2.3l0.5,0.1c0,0.4,0.1,0.8,0.3,1.2c0.2,0.4,0.4,0.7,0.7,0.8c0.1,0,0.3,0.1,0.5,0.2c0.2,0.1,0.4,0.1,0.6,0.2l1.5,0.3
		l0.9-3.8l-1.1-0.3c-0.3-0.1-0.6-0.1-0.8-0.1c-0.2,0-0.3,0.1-0.5,0.2c-0.1,0.1-0.3,0.3-0.4,0.5c-0.1,0.2-0.2,0.4-0.3,0.6l-0.5-0.1
		l0.9-3.7l0.5,0.1c0,0.2,0,0.5,0,0.7c0,0.3,0.1,0.4,0.1,0.6c0.1,0.2,0.2,0.4,0.4,0.5c0.2,0.1,0.4,0.2,0.7,0.2l1.1,0.3l0.7-2.8
		c0.1-0.3,0.1-0.5,0.1-0.7c0-0.2,0-0.3-0.1-0.4s-0.2-0.2-0.4-0.3c-0.2-0.1-0.5-0.2-0.8-0.2c-0.1,0-0.3-0.1-0.6-0.1
		c-0.2-0.1-0.4-0.1-0.6-0.1c-0.2,0-0.4,0-0.5,0c-0.2,0-0.3,0-0.4,0.1c-0.3,0.2-0.5,0.4-0.9,0.8c-0.3,0.4-0.5,0.7-0.7,0.9L37.1,88.8z
		"/>
	<path class="st1" d="M25.3,90.1c0.1,0,0.2,0.1,0.4,0.1s0.3,0,0.5,0c0.2,0,0.3-0.1,0.5-0.2c0.2-0.1,0.3-0.2,0.5-0.4
		c0.6-0.5,1.5-1.3,2.7-2.4c1.2-1.1,2.5-2.3,3.8-3.5l0.5,0.3c-0.2,1.9-0.4,3.7-0.6,5.4c-0.2,1.7-0.3,2.9-0.4,3.5c0,0.2,0,0.3,0,0.4
		c0,0.1,0.1,0.3,0.2,0.4c0.1,0.1,0.2,0.2,0.3,0.3c0.1,0.1,0.2,0.2,0.3,0.3L33.9,95l-3.6-1.8l0.2-0.4c0.3,0.1,0.6,0.2,0.8,0.3
		s0.4,0,0.4-0.1c0,0,0-0.1,0.1-0.2c0-0.1,0-0.1,0-0.2c0-0.5,0.1-1.2,0.2-2.3s0.3-2.6,0.5-4.6c-0.7,0.6-1.5,1.3-2.4,2.1
		c-0.9,0.8-1.5,1.4-1.9,1.7c-0.3,0.3-0.5,0.5-0.6,0.7s-0.2,0.2-0.2,0.3c0,0.1,0,0.2,0,0.3c0.1,0.1,0.1,0.2,0.3,0.3
		c0.1,0.1,0.2,0.2,0.4,0.3c0.1,0.1,0.3,0.2,0.4,0.3l-0.2,0.4l-3.2-1.6L25.3,90.1z"/>
	<path class="st1" d="M21.6,79l2-2.1l6.2,5.1l-0.3,0.4c-0.1-0.1-0.3-0.2-0.5-0.3c-0.2-0.1-0.3-0.2-0.4-0.2c-0.2,0-0.3,0-0.4,0
		c-0.1,0-0.2,0.1-0.3,0.3l-4.4,5.4c-0.1,0.1-0.2,0.2-0.2,0.4c0,0.1,0,0.3,0.1,0.4c0.1,0.1,0.2,0.3,0.3,0.4c0.1,0.2,0.2,0.3,0.3,0.4
		l-0.3,0.4l-5.8-4.8l1.5-1.8l0.4,0.3c-0.1,0.3-0.2,0.7-0.2,1.2c0,0.5,0.1,0.8,0.3,1c0.1,0.1,0.2,0.2,0.4,0.4s0.3,0.3,0.5,0.4l1.2,1
		l2.5-3l-0.8-0.7c-0.3-0.2-0.5-0.4-0.7-0.4s-0.3-0.1-0.5,0c-0.2,0-0.3,0.1-0.5,0.2c-0.2,0.1-0.4,0.3-0.5,0.4l-0.4-0.3l2.4-2.9
		l0.4,0.3c-0.1,0.2-0.2,0.4-0.3,0.6c-0.1,0.2-0.1,0.4-0.1,0.6c0,0.2,0,0.4,0.1,0.6c0.1,0.2,0.3,0.3,0.5,0.5l0.8,0.7l1.8-2.2
		c0.2-0.2,0.3-0.4,0.4-0.6c0.1-0.2,0.1-0.3,0.1-0.4c0-0.1-0.1-0.3-0.3-0.4c-0.1-0.2-0.4-0.3-0.7-0.6c-0.1-0.1-0.3-0.2-0.5-0.4
		s-0.4-0.3-0.5-0.4c-0.1-0.1-0.3-0.2-0.5-0.3c-0.2-0.1-0.3-0.1-0.4-0.1c-0.3,0-0.7,0.2-1.1,0.3c-0.5,0.2-0.8,0.4-1,0.5L21.6,79z"/>
	<path class="st1" d="M16.1,72.1l2.4-1.6l4.7,6l-0.4,0.3c-0.1-0.1-0.2-0.2-0.3-0.3c-0.1-0.1-0.3-0.2-0.3-0.3C22,76,21.8,76,21.7,76
		c-0.1,0-0.3,0.1-0.4,0.2l-5.5,4.3c-0.1,0.1-0.2,0.2-0.3,0.3s-0.1,0.3,0,0.4c0,0.1,0.1,0.3,0.1,0.4c0.1,0.2,0.1,0.3,0.2,0.4
		l-0.4,0.3L13,79.2l0.4-0.3c0.1,0.1,0.2,0.2,0.4,0.3c0.2,0.1,0.3,0.2,0.4,0.3c0.1,0.1,0.3,0.1,0.4,0.1c0.1,0,0.3-0.1,0.4-0.2l5.1-4
		c0.2-0.2,0.4-0.3,0.5-0.5c0.1-0.1,0.2-0.3,0.2-0.4c0-0.1-0.1-0.3-0.2-0.5c-0.1-0.2-0.3-0.4-0.5-0.7c-0.1-0.1-0.2-0.3-0.3-0.4
		c-0.1-0.1-0.2-0.3-0.4-0.4c-0.1-0.1-0.2-0.2-0.4-0.3s-0.2-0.1-0.3-0.1c-0.3,0-0.7,0-1.2,0.1c-0.5,0.1-0.9,0.1-1.1,0.2L16.1,72.1z"
		/>
	<path class="st1" d="M7.3,66.8c0.2-0.6,0.6-1.1,1-1.6c0.5-0.5,1.1-0.9,1.8-1.2c0.7-0.3,1.4-0.5,2.1-0.5c0.7,0,1.3,0,1.9,0.3
		c0.6,0.2,1.1,0.5,1.5,0.9c0.4,0.4,0.8,0.9,1.1,1.5c0.3,0.6,0.4,1.2,0.4,1.9c0,0.6-0.1,1.2-0.3,1.8c-0.2,0.6-0.6,1.1-1.1,1.6
		c-0.5,0.5-1,0.9-1.7,1.2c-0.7,0.3-1.4,0.5-2.1,0.5c-0.7,0-1.3-0.1-1.9-0.3c-0.6-0.2-1.1-0.5-1.6-0.9c-0.5-0.4-0.8-0.9-1.1-1.5
		C7.1,69.7,7,69.1,7,68.5C6.9,67.9,7,67.3,7.3,66.8z M13.9,64.8c-0.5-0.1-1,0-1.5,0.1c-0.5,0.1-1.1,0.3-1.7,0.6
		c-0.6,0.3-1.1,0.6-1.6,0.9c-0.5,0.4-0.8,0.7-1.1,1.1c-0.2,0.4-0.4,0.8-0.4,1.2c0,0.4,0,0.9,0.2,1.3c0.2,0.5,0.5,0.9,0.9,1.1
		c0.4,0.2,0.8,0.4,1.3,0.4c0.5,0,1,0,1.5-0.1c0.5-0.1,1.1-0.3,1.6-0.6c0.6-0.3,1.1-0.6,1.5-0.9c0.4-0.3,0.8-0.7,1-1.1
		c0.3-0.4,0.4-0.8,0.5-1.2c0-0.4,0-0.9-0.3-1.4c-0.2-0.4-0.5-0.8-0.9-1.1C14.8,65,14.4,64.9,13.9,64.8z"/>
	<path class="st1" d="M5.8,55.5c0.5-0.1,1-0.1,1.4,0c0.4,0.1,0.8,0.3,1.1,0.6c0.3,0.3,0.6,0.6,0.8,1c0.2,0.4,0.3,0.8,0.4,1.3
		l0.2,1.1l2.9-0.6c0.2,0,0.3-0.1,0.4-0.2c0.1-0.1,0.2-0.2,0.2-0.4c0-0.1,0-0.2,0-0.4s0-0.4-0.1-0.6l0.5-0.1l0.8,4.1l-0.5,0.1
		c0-0.1-0.1-0.3-0.1-0.5c-0.1-0.2-0.1-0.3-0.2-0.4c-0.1-0.1-0.2-0.2-0.3-0.2c-0.1,0-0.3,0-0.4,0L6,61.7c-0.2,0-0.3,0.1-0.4,0.2
		c-0.1,0.1-0.2,0.2-0.2,0.4c0,0.2,0,0.4,0,0.5c0,0.2,0,0.3,0,0.4l-0.5,0.1L4,58.9c-0.2-0.9-0.1-1.6,0.2-2.3
		C4.6,56,5.1,55.6,5.8,55.5z M7.8,57.2C7.6,57.1,7.3,57,7.1,57c-0.2,0-0.5,0-0.6,0c-0.3,0-0.5,0.1-0.8,0.2c-0.3,0.1-0.5,0.3-0.6,0.4
		c-0.2,0.2-0.3,0.4-0.4,0.7c-0.1,0.3-0.1,0.6,0,1l0.2,0.9l4.2-0.8L9,58.9c-0.1-0.5-0.2-0.9-0.5-1.1S8.1,57.3,7.8,57.2z"/>
	<path class="st1" d="M10.2,45.3l2.9,0.2l-0.2,8.1l-0.5,0c0-0.1,0-0.3,0-0.5s-0.1-0.4-0.1-0.4c-0.1-0.1-0.2-0.3-0.3-0.3
		c-0.1-0.1-0.2-0.1-0.4-0.1l-7-0.2c-0.2,0-0.3,0-0.4,0.1c-0.1,0-0.2,0.2-0.3,0.3c-0.1,0.1-0.1,0.3-0.2,0.5c-0.1,0.2-0.1,0.4-0.1,0.5
		l-0.5,0l0.2-7.5L5.7,46l0,0.5C5.4,46.6,5,46.8,4.6,47c-0.4,0.3-0.6,0.6-0.7,0.9c0,0.1,0,0.3-0.1,0.5c0,0.2,0,0.4,0,0.7l0,1.5
		l3.9,0.1l0-1.1c0-0.4,0-0.6-0.1-0.8c-0.1-0.2-0.2-0.3-0.3-0.4c-0.1-0.1-0.3-0.2-0.5-0.3C6.6,48,6.3,48,6.2,48l0-0.5l3.8,0.1l0,0.5
		c-0.2,0-0.5,0.1-0.7,0.1s-0.4,0.2-0.5,0.2c-0.2,0.1-0.3,0.3-0.4,0.5s-0.1,0.4-0.1,0.7l0,1.1l2.9,0.1c0.3,0,0.5,0,0.7,0
		c0.2,0,0.3-0.1,0.4-0.2c0.1-0.1,0.1-0.3,0.2-0.5c0-0.2,0-0.5,0.1-0.9c0-0.2,0-0.3,0-0.6c0-0.2,0-0.5,0-0.6c0-0.2,0-0.4-0.1-0.5
		s-0.1-0.3-0.2-0.4c-0.2-0.2-0.5-0.4-1-0.7c-0.4-0.2-0.8-0.4-1-0.5L10.2,45.3z"/>
	<path class="st1" d="M15.6,35.9l-0.7,2.5c-1,0.3-1.9,0.6-2.7,0.9s-1.5,0.6-2.4,0.9l-0.3,1l3,0.8c0.2,0,0.3,0.1,0.4,0
		c0.1,0,0.2-0.1,0.3-0.2c0.1-0.1,0.1-0.2,0.2-0.4s0.1-0.4,0.2-0.5l0.5,0.1l-1,4l-0.5-0.1c0-0.1,0-0.3,0.1-0.5c0-0.2,0-0.4,0-0.4
		c0-0.1-0.1-0.3-0.2-0.4c-0.1-0.1-0.2-0.2-0.4-0.2l-6.8-1.8c-0.2,0-0.3-0.1-0.4,0c-0.1,0-0.2,0.1-0.4,0.2c-0.1,0.1-0.1,0.2-0.2,0.4
		c-0.1,0.2-0.1,0.3-0.2,0.4l-0.5-0.1l1.1-4.3c0.1-0.4,0.2-0.8,0.4-1.1c0.2-0.3,0.4-0.6,0.6-0.8c0.2-0.2,0.5-0.4,0.9-0.5
		s0.7-0.1,1.1,0c0.4,0.1,0.7,0.2,0.9,0.4c0.2,0.2,0.4,0.4,0.6,0.7c0.1,0.2,0.2,0.5,0.3,0.8c0.1,0.3,0.1,0.7,0.1,1
		c0.7-0.3,1.4-0.6,1.9-0.7c0.5-0.2,1.1-0.4,1.8-0.7c0.3-0.1,0.6-0.2,0.7-0.4c0.2-0.1,0.3-0.3,0.4-0.4c0.1-0.1,0.2-0.2,0.2-0.4
		c0.1-0.2,0.1-0.3,0.2-0.4L15.6,35.9z M7.7,37.5c-0.6-0.1-1.1-0.1-1.5,0.1s-0.7,0.7-0.9,1.3L5,40l4,1.1l0.2-0.9
		c0.2-0.6,0.1-1.2-0.2-1.7C8.8,38.1,8.3,37.7,7.7,37.5z"/>
</g>
<g>
</g>
<g>
</g>
<g>
</g>
<g>
</g>
<g>
</g>
<g>
</g>
<g>
</g>
<g>
</g>
<g>
</g>
<g>
</g>
<g>
</g>
</svg>
