<?xml version="1.0" encoding="utf-8"?>
<!-- Generator: Adobe Illustrator 23.1.0, SVG Export Plug-In . SVG Version: 6.00 Build 0)  -->
<svg version="1.1" id="Слой_1" xmlns="http://www.w3.org/2000/svg" xmlns:xlink="http://www.w3.org/1999/xlink" x="0px" y="0px"
	 viewBox="0 0 50 50" style="enable-background:new 0 0 50 50;" xml:space="preserve">
<style type="text/css">
	.st0{fill:#CD679A;}
</style>
<path class="st0" d="M50,25c-0.1,6.7-2.3,12.6-7.1,17.4c-5.1,5.2-11.4,7.8-18.7,7.6c-6.2-0.2-11.6-2.4-16.2-6.6
	C2.5,38.2-0.2,31.8,0,24.2C0.2,18,2.4,12.6,6.6,8.1c5.2-5.6,11.6-8.2,19.2-8C38.8,0.3,50,11.1,50,25z M32.4,9.2
	c0.7,0.1,1.4-0.1,2.1,0.1c0.8,0.2,1.6,0.4,2.3,0.8c0.6,0.4,1,0.8,1.2,1.5c0.2,0.8,0.2,1.7-0.1,2.5c-0.3,0.9-0.8,1.8-1.4,2.5
	c-1,1.2-2.2,2.2-3.6,3c-1,0.6-2,1-3,1.3c-1,0.3-1.9,0.5-3,0.7c-1.2,0.1-2.4,0.1-3.5-0.2c-0.7-0.2-1.4-0.6-1.9-1.2
	C21.2,20,21,19.9,20.8,20c-0.2,0.1-0.2,0.3-0.1,0.6c0.2,0.6,0.6,1.1,1.1,1.5c0.7,0.6,1.5,1,2.5,1.2c1,0.3,1.9,0.2,2.9,0.2
	c1.3,0,2.6-0.2,3.9-0.6c0.9-0.2,1.7-0.5,2.5-0.9c1.3-0.6,2.5-1.3,3.6-2.3c1-0.9,1.8-1.9,2.5-3c0.5-0.9,0.9-1.9,1.2-2.9
	c0.2-1,0.3-2,0-3c-0.2-0.9-0.6-1.7-1.2-2.3c-1.1-1.2-2.5-1.8-4-2.2c-0.9-0.3-1.9-0.3-2.9-0.4c-0.7,0-1.5,0-2.2,0
	c-1.1,0-2.2,0.2-3.3,0.5C26.5,6.8,25.7,7,25,7.3c-1,0.4-2,0.8-3,1.2c-0.9,0.4-1.8,0.8-2.6,1.3c-0.9,0.5-1.8,1-2.6,1.6
	c-0.9,0.6-1.8,1.2-2.6,1.9c-1,0.9-2,1.9-2.9,2.9c-0.9,1.1-1.5,2.3-1.9,3.6c-0.2,0.8-0.3,1.7-0.1,2.5c0.2,0.8,0.6,1.6,1.1,2.3
	c1,1.5,2.4,2.7,3.9,3.8c1.4,1.1,2.9,2,4.3,3.1c0.3,0.3,0.3,0.3,0,0.5c-1.1,0.6-2.2,1.2-3.2,1.9c-0.6,0.4-1.2,0.8-1.7,1.3
	c-0.7,0.5-1.3,1.1-1.8,1.8c-1,1.4-1.4,3-0.8,4.7c0.2,0.6,0.6,1.2,1.1,1.6c0.4,0.3,0.8,0.3,1.3,0.4c1,0.2,2.1,0.1,3.1-0.2
	c1-0.3,2-0.8,2.8-1.4c0.9-0.7,1.6-1.5,2.2-2.5c0.8-1.3,1.1-2.8,1.1-4.3c0-0.8-0.1-1.7-0.4-2.5c-0.1-0.2-0.1-0.3,0.2-0.4
	c0.5-0.1,1-0.2,1.5-0.2c1.4-0.1,2.8,0.1,4.1,0.6c1.2,0.5,2.3,1.3,2.7,2.6c0.2,0.6,0.2,1.2-0.1,1.8c-0.3,0.6-0.7,1-1.3,1.3
	c-0.2,0.1-0.3,0.3-0.2,0.5c0.1,0.2,0.3,0.2,0.5,0.1c0.9-0.3,1.6-0.9,2.1-1.7c0.5-1,0.4-2,0.1-3c-0.3-1-1-1.8-1.8-2.5
	c-1.2-1-2.7-1.5-4.3-1.6c-1.4-0.1-2.8,0-4.2,0.4c-0.2,0.1-0.5,0.1-0.7-0.1c-1.1-1.1-2.3-2-3.6-3c-1-0.8-2-1.5-2.8-2.5
	c-0.6-0.7-1.1-1.5-1.3-2.4c-0.2-0.9-0.1-1.8,0.2-2.7c0.2-0.7,0.6-1.4,1-2c1-1.4,2.3-2.5,3.7-3.5c1.3-0.9,2.6-1.7,4-2.5
	c0.9-0.5,1.8-0.9,2.7-1.3c1.4-0.6,2.8-1.1,4.3-1.4c0.8-0.2,1.7-0.4,2.6-0.4C31.8,9.2,32.1,9.2,32.4,9.2z"/>
<path class="st0" d="M20.3,35c0,1.8-0.6,3.2-1.7,4.4c-0.8,0.8-1.7,1.4-2.7,1.8c-0.4,0.1-0.8,0.2-1.3,0.1c-0.5-0.1-0.8-0.5-0.8-1
	c0-0.8,0.2-1.5,0.6-2.2c1-1.7,2.5-2.9,4.1-3.9c0.4-0.3,0.8-0.5,1.2-0.7c0.2-0.1,0.3-0.1,0.4,0.2C20.2,34.1,20.3,34.6,20.3,35z"/>
</svg>
