<?xml version="1.0" encoding="utf-8"?>
<!-- Generator: Adobe Illustrator 23.1.0, SVG Export Plug-In . SVG Version: 6.00 Build 0)  -->
<svg version="1.1" id="Слой_1" xmlns="http://www.w3.org/2000/svg" xmlns:xlink="http://www.w3.org/1999/xlink" x="0px" y="0px"
	 viewBox="0 0 50 50" style="enable-background:new 0 0 50 50;" xml:space="preserve">
<style type="text/css">
	.st0{fill:#2D79C6;}
	.st1{fill:#FEFEFE;}
</style>
<path class="st0" d="M0,24.9c0-6.7,0-13.5,0-20.2c0-2.4,1.8-4.5,4.2-4.8c0.3,0,0.5,0,0.8,0c13.4,0,26.8,0,40.2,0
	c2.5,0,4.6,1.9,4.9,4.2c0,0.2,0,0.4,0,0.6c0,13.5,0,27,0,40.5c0,2.3-1.9,4.4-4.2,4.7c-0.3,0-0.5,0-0.8,0c-13.4,0-26.8,0-40.2,0
	c-2.5,0-4.5-1.8-4.9-4.2c0-0.2,0-0.4,0-0.7C0,38.4,0,31.7,0,24.9z"/>
<path class="st1" d="M31,39.8c1,0.8,2,1.4,3.1,1.7c1.5,0.5,3,0.6,4.5,0.3c0.5-0.1,0.9-0.3,1.3-0.5c0.9-0.7,1.1-1.9,0.4-2.8
	c-0.4-0.5-1-0.9-1.6-1.2c-1.1-0.6-2.3-1-3.4-1.6c-1-0.5-1.9-1.1-2.7-1.9c-1.3-1.3-1.8-2.9-1.6-4.7c0.1-1.7,0.9-3.1,2.2-4.2
	c1-0.7,2.1-1.2,3.2-1.4c2.6-0.5,5.3-0.5,7.9,0.3C45,24,45,24,45,24.7c0,1.2,0,2.3,0,3.5c0,0.1,0,0.2,0,0.3c-0.6-0.4-1.2-0.7-1.8-0.9
	c-1.6-0.6-3.2-0.8-4.9-0.4c-0.5,0.1-0.9,0.3-1.3,0.6c-1,0.7-1.1,1.9-0.3,2.8c0.5,0.5,1.1,0.9,1.7,1.2c0.9,0.4,1.8,0.8,2.6,1.2
	c1.1,0.5,2.3,1.1,3.2,2c1.1,1,1.7,2.3,1.8,3.8c0.1,1.1,0,2.2-0.4,3.2c-0.7,1.6-1.9,2.7-3.5,3.3c-1.5,0.6-3.1,0.7-4.7,0.8
	c-1.8,0-3.5-0.2-5.2-0.8c-0.4-0.1-0.8-0.2-1-0.5c-0.2-0.2,0-0.7-0.1-1c0-1.2,0-2.3,0-3.5C31,40,31,39.9,31,39.8z"/>
<path class="st1" d="M17.8,36.7c0-2.9,0-5.8,0-8.7c0-0.2-0.1-0.3-0.3-0.3c-1.9,0-3.8,0-5.7,0c-0.2,0-0.3,0-0.3-0.3
	c0-1.2,0-2.3,0-3.5c0-0.2,0.1-0.3,0.3-0.3c5.7,0,11.3,0,17,0c0.2,0,0.3,0.1,0.3,0.3c0,1.2,0,2.3,0,3.5c0,0.2-0.1,0.3-0.3,0.3
	c-1.9,0-3.8,0-5.7,0c-0.3,0-0.4,0.1-0.4,0.4c0,5.7,0,11.5,0,17.2c0,0.4,0,0.4-0.4,0.4c-1.4,0-2.9,0-4.3,0c-0.2,0-0.3-0.1-0.3-0.3
	C17.8,42.4,17.8,39.5,17.8,36.7z"/>
</svg>
